<?xml version="1.0" encoding="UTF-8" standalone="no"?>
<!-- Created with Inkscape (http://www.inkscape.org/) -->

<svg
   xmlns:dc="http://purl.org/dc/elements/1.1/"
   xmlns:cc="http://creativecommons.org/ns#"
   xmlns:rdf="http://www.w3.org/1999/02/22-rdf-syntax-ns#"
   xmlns:svg="http://www.w3.org/2000/svg"
   xmlns="http://www.w3.org/2000/svg"
   xmlns:sodipodi="http://sodipodi.sourceforge.net/DTD/sodipodi-0.dtd"
   xmlns:inkscape="http://www.inkscape.org/namespaces/inkscape"
   width="61.699745mm"
   height="18.015816mm"
   viewBox="0 0 61.699745 18.015816"
   version="1.1"
   id="svg843"
   inkscape:version="0.92.3 (2405546, 2018-03-11)"
   sodipodi:docname="scriggo-gold.svg">
  <defs
     id="defs837" />
  <sodipodi:namedview
     id="base"
     pagecolor="#ffffff"
     bordercolor="#666666"
     borderopacity="1.0"
     inkscape:pageopacity="0.0"
     inkscape:pageshadow="2"
     inkscape:zoom="2.8"
     inkscape:cx="132.71989"
     inkscape:cy="36.731094"
     inkscape:document-units="mm"
     inkscape:current-layer="layer1"
     showgrid="false"
     fit-margin-top="0"
     fit-margin-left="0"
     fit-margin-right="0"
     fit-margin-bottom="0"
     inkscape:window-width="2560"
     inkscape:window-height="1369"
     inkscape:window-x="0"
     inkscape:window-y="0"
     inkscape:window-maximized="1" />
  <metadata
     id="metadata840">
    <rdf:RDF>
      <cc:Work
         rdf:about="">
        <dc:format>image/svg+xml</dc:format>
        <dc:type
           rdf:resource="http://purl.org/dc/dcmitype/StillImage" />
        <dc:title></dc:title>
      </cc:Work>
    </rdf:RDF>
  </metadata>
  <g
     inkscape:label="Livello 1"
     inkscape:groupmode="layer"
     id="layer1"
     transform="translate(-59.406113,-89.265547)">
    <path
       style="font-style:normal;font-variant:normal;font-weight:500;font-stretch:normal;font-size:19.18617249px;line-height:125%;font-family:Ubuntu;-inkscape-font-specification:'Ubuntu, Medium';font-variant-ligatures:normal;font-variant-caps:normal;font-variant-numeric:normal;font-feature-settings:normal;text-align:start;letter-spacing:-0.5291667px;word-spacing:0px;writing-mode:lr-tb;text-anchor:start;fill:#e6a62f;fill-opacity:0.94117647;stroke:none;stroke-width:1.8128581px;stroke-linecap:butt;stroke-linejoin:miter;stroke-opacity:1"
       d="M 104.37109 0 C 102.87246 0 101.59284 0.48431077 100.5293 1.4511719 C 99.465748 2.4180355 98.933594 3.7474443 98.933594 5.4394531 C 98.933594 7.0831167 99.465748 8.386652 100.5293 9.3535156 C 101.59284 10.320377 102.87246 10.804688 104.37109 10.804688 C 105.82139 10.804688 107.07903 10.320377 108.14258 9.3535156 C 109.20613 8.386652 109.73828 7.0831167 109.73828 5.4394531 C 109.73828 3.7474443 109.20613 2.4180355 108.14258 1.4511719 C 107.07903 0.48431077 105.82139 0 104.37109 0 z M 18.564453 3.0449219 C 13.150023 3.0449219 8.8708174 4.3504103 5.7285156 6.9609375 C 2.5862139 9.5231221 1.015625 13.076839 1.015625 17.621094 C 1.015625 19.796532 1.3783704 21.658097 2.1035156 23.205078 C 2.877006 24.752056 3.8675923 26.081468 5.0761719 27.193359 C 6.3330916 28.305251 7.7581922 29.247994 9.3535156 30.021484 C 10.997182 30.746632 12.689336 31.422321 14.429688 32.050781 C 16.170039 32.630898 17.718658 33.236775 19.072266 33.865234 C 20.425873 34.445352 21.56195 35.097118 22.480469 35.822266 C 23.44733 36.499068 24.170865 37.272402 24.654297 38.142578 C 25.186071 39.012754 25.453125 40.053137 25.453125 41.261719 C 25.453125 43.292131 24.703714 44.862723 23.205078 45.974609 C 21.70644 47.086496 19.31272 47.642578 16.025391 47.642578 C 12.883086 47.642578 10.200346 47.279828 7.9765625 46.554688 C 5.7527792 45.829547 3.9888561 45.104072 2.6835938 44.378906 L 0 51.847656 C 0.58011969 52.18605 1.3534514 52.572713 2.3203125 53.007812 C 3.2871736 53.394559 4.4232507 53.781222 5.7285156 54.167969 C 7.0821232 54.554791 8.6048662 54.86969 10.296875 55.111328 C 12.037226 55.401369 13.946635 55.546875 16.025391 55.546875 C 22.213309 55.546875 26.903106 54.313143 30.09375 51.847656 C 33.33274 49.333817 34.951172 45.805971 34.951172 41.261719 C 34.951172 38.892902 34.614305 36.885854 33.9375 35.242188 C 33.260697 33.550179 32.268156 32.099202 30.962891 30.890625 C 29.705971 29.633705 28.135382 28.571348 26.25 27.701172 C 24.412961 26.782651 22.310218 25.887754 19.941406 25.017578 C 18.587799 24.534146 17.330156 24.025913 16.169922 23.494141 C 15.05803 22.962366 14.067441 22.382369 13.197266 21.753906 C 12.375433 21.125446 11.723666 20.425834 11.240234 19.652344 C 10.805148 18.830511 10.587891 17.861892 10.587891 16.75 C 10.587891 14.912963 11.263582 13.487863 12.617188 12.472656 C 14.019138 11.457452 15.95247 10.949219 18.417969 10.949219 C 20.496724 10.949219 22.503775 11.192352 24.4375 11.675781 C 26.419567 12.159213 28.23329 12.858825 29.876953 13.777344 L 32.705078 6.3808594 C 31.303128 5.5590263 29.367843 4.8096175 26.902344 4.1328125 C 24.48519 3.4076673 21.706755 3.0449219 18.564453 3.0449219 z M 57.175781 15.589844 C 54.275193 15.589844 51.666172 16.098077 49.345703 17.113281 C 47.025234 18.128488 45.042104 19.529665 43.398438 21.318359 C 41.803114 23.107056 40.571348 25.235673 39.701172 27.701172 C 38.830996 30.118326 38.394531 32.72735 38.394531 35.53125 C 38.394531 38.383493 38.781197 41.044266 39.554688 43.509766 C 40.328175 45.926925 41.490129 48.02966 43.037109 49.818359 C 44.632433 51.558706 46.613611 52.935966 48.982422 53.951172 C 51.399578 54.918025 54.22781 55.400391 57.466797 55.400391 C 59.545552 55.400391 61.55065 55.207059 63.484375 54.820312 C 65.466442 54.433566 66.941342 53.999052 67.908203 53.515625 L 66.675781 46.263672 C 65.612232 46.698771 64.35459 47.061496 62.904297 47.351562 C 61.454004 47.641603 59.981057 47.787109 58.482422 47.787109 C 54.469942 47.787109 51.61779 46.698858 49.925781 44.523438 C 48.233772 42.299639 47.386719 39.302007 47.386719 35.53125 C 47.386719 31.615458 48.281616 28.595845 50.070312 26.46875 C 51.859007 24.293309 54.469983 23.205078 57.902344 23.205078 C 59.352637 23.205078 60.705968 23.350566 61.962891 23.640625 C 63.268156 23.930684 64.428156 24.291476 65.443359 24.726562 L 67.328125 17.548828 C 64.137478 16.243566 60.75317 15.589844 57.175781 15.589844 z M 214.99414 15.589844 C 212.33527 15.589844 209.8937 16.074155 207.66992 17.041016 C 205.44612 17.959534 203.51281 19.288943 201.86914 21.029297 C 200.27383 22.769648 199.01814 24.872391 198.09961 27.337891 C 197.22944 29.755045 196.79297 32.461711 196.79297 35.458984 C 196.79297 38.456258 197.22944 41.188805 198.09961 43.654297 C 199.01814 46.119809 200.27383 48.222544 201.86914 49.962891 C 203.46448 51.703237 205.37388 53.056559 207.59766 54.023438 C 209.82143 54.990291 212.28692 55.474609 214.99414 55.474609 C 217.70134 55.474609 220.16683 54.990291 222.39062 54.023438 C 224.66275 53.056559 226.59609 51.703237 228.19141 49.962891 C 229.78674 48.222544 231.02045 46.119809 231.89062 43.654297 C 232.7608 41.188805 233.19531 38.456258 233.19531 35.458984 C 233.19531 32.461711 232.73689 29.755045 231.81836 27.337891 C 230.94819 24.872391 229.71445 22.769648 228.11914 21.029297 C 226.5238 19.288943 224.59049 17.959534 222.31836 17.041016 C 220.09459 16.074155 217.65301 15.589844 214.99414 15.589844 z M 87.566406 15.736328 C 84.472447 15.736328 81.644216 16.025352 79.082031 16.605469 C 76.568189 17.137243 74.465446 17.717243 72.773438 18.345703 L 72.773438 54.458984 L 81.546875 54.458984 L 81.546875 24.074219 C 81.981962 23.929178 82.731373 23.759767 83.794922 23.566406 C 84.906814 23.37302 85.945246 23.277344 86.912109 23.277344 C 88.604118 23.277344 90.079018 23.422832 91.335938 23.712891 C 92.641202 23.954609 93.657667 24.195787 94.382812 24.4375 L 95.904297 17.041016 C 95.469208 16.89599 94.889208 16.750502 94.164062 16.605469 C 93.438915 16.41209 92.689506 16.266602 91.916016 16.169922 C 91.142528 16.024914 90.369194 15.929212 89.595703 15.880859 C 88.822213 15.784179 88.146523 15.736328 87.566406 15.736328 z M 134.59766 15.736328 C 131.64873 15.736328 129.01383 16.194763 126.69336 17.113281 C 124.37289 18.031802 122.38976 19.313368 120.74609 20.957031 C 119.15077 22.600697 117.91901 24.581873 117.04883 26.902344 C 116.227 29.222812 115.81445 31.76202 115.81445 34.517578 C 115.81445 37.466507 116.20307 40.075533 116.97656 42.347656 C 117.7984 44.571455 118.9086 46.433008 120.31055 47.931641 C 121.76084 49.430274 123.47692 50.566351 125.45898 51.339844 C 127.4894 52.113337 129.71371 52.5 132.13086 52.5 C 133.9679 52.5 135.58828 52.282755 136.99023 51.847656 C 138.44053 51.412557 139.60053 50.978043 140.4707 50.542969 L 140.4707 51.992188 C 140.4707 54.844446 139.72129 56.996985 138.22266 58.447266 C 136.72402 59.897571 134.21069 60.623047 130.68164 60.623047 C 128.45786 60.623047 126.37904 60.429715 124.44531 60.042969 C 122.55993 59.656222 120.86778 59.147991 119.36914 58.519531 L 117.77344 65.988281 C 119.56213 66.616741 121.54331 67.124972 123.71875 67.511719 C 125.94253 67.898465 128.21469 68.091797 130.53516 68.091797 C 136.8681 68.091797 141.5579 66.688671 144.60352 63.884766 C 147.69747 61.080885 149.24414 56.658119 149.24414 50.615234 L 149.24414 17.765625 C 147.45545 17.282193 145.28093 16.823758 142.71875 16.388672 C 140.15656 15.953583 137.4499 15.736328 134.59766 15.736328 z M 175.08594 15.736328 C 172.137 15.736328 169.50212 16.194763 167.18164 17.113281 C 164.86119 18.031802 162.87999 19.313368 161.23633 20.957031 C 159.64099 22.600697 158.40728 24.581873 157.53711 26.902344 C 156.71529 29.222812 156.30469 31.76202 156.30469 34.517578 C 156.30469 37.466507 156.69135 40.075533 157.46484 42.347656 C 158.28666 44.571455 159.39883 46.433008 160.80078 47.931641 C 162.25109 49.430274 163.96716 50.566351 165.94922 51.339844 C 167.97963 52.113337 170.20393 52.5 172.62109 52.5 C 174.45812 52.5 176.07656 52.282755 177.47852 51.847656 C 178.92882 51.412557 180.08881 50.978043 180.95898 50.542969 L 180.95898 51.992188 C 180.95898 54.844446 180.20957 56.996985 178.71094 58.447266 C 177.21228 59.897571 174.69897 60.623047 171.16992 60.623047 C 168.94615 60.623047 166.86733 60.429715 164.93359 60.042969 C 163.04821 59.656222 161.35605 59.147991 159.85742 58.519531 L 158.26172 65.988281 C 160.05039 66.616741 162.03354 67.124972 164.20898 67.511719 C 166.43278 67.898465 168.70494 68.091797 171.02539 68.091797 C 177.35834 68.091797 182.04813 66.688671 185.09375 63.884766 C 188.1877 61.080885 189.73438 56.658119 189.73438 50.615234 L 189.73438 17.765625 C 187.9457 17.282193 185.76922 16.823758 183.20703 16.388672 C 180.64484 15.953583 177.93817 15.736328 175.08594 15.736328 z M 100.02148 16.533203 L 100.02148 54.458984 L 108.79492 54.458984 L 108.79492 16.533203 L 100.02148 16.533203 z M 134.66992 23.060547 C 136.07187 23.060547 137.23187 23.132311 138.15039 23.277344 C 139.06891 23.374024 139.84224 23.495592 140.4707 23.640625 L 140.4707 43.291016 C 139.69721 43.822795 138.68075 44.283175 137.42383 44.669922 C 136.21525 45.056668 134.91172 45.25 133.50977 45.25 C 130.94758 45.25 128.84484 44.402956 127.20117 42.710938 C 125.60585 40.970591 124.80664 38.239997 124.80664 34.517578 C 124.80664 31.085218 125.65369 28.328755 127.3457 26.25 C 129.03771 24.122902 131.47928 23.060547 134.66992 23.060547 z M 175.1582 23.060547 C 176.56016 23.060547 177.72015 23.132311 178.63867 23.277344 C 179.5572 23.374024 180.33052 23.495592 180.95898 23.640625 L 180.95898 43.291016 C 180.18549 43.822795 179.17098 44.283175 177.91406 44.669922 C 176.70547 45.056668 175.4 45.25 173.99805 45.25 C 171.43588 45.25 169.33312 44.402956 167.68945 42.710938 C 166.09411 40.970591 165.29688 38.239997 165.29688 34.517578 C 165.29688 31.085218 166.14197 28.328755 167.83398 26.25 C 169.526 24.122902 171.96758 23.060547 175.1582 23.060547 z M 214.99414 23.205078 C 217.89473 23.205078 220.14297 24.317232 221.73828 26.541016 C 223.38195 28.716456 224.20312 31.688223 224.20312 35.458984 C 224.20313 39.278084 223.38195 42.299639 221.73828 44.523438 C 220.14297 46.747211 217.89473 47.859375 214.99414 47.859375 C 212.09355 47.859375 209.8214 46.747211 208.17773 44.523438 C 206.5824 42.299639 205.78516 39.278084 205.78516 35.458984 C 205.78516 31.688223 206.5824 28.716456 208.17773 26.541016 C 209.8214 24.317232 212.09355 23.205078 214.99414 23.205078 z "
       transform="matrix(0.26458333,0,0,0.26458333,59.406113,89.265547)"
       id="path1439" />
  </g>
</svg>
